<svg xmlns="http://www.w3.org/2000/svg" viewBox="60.75 48.75 345.50 53.75" role="img" aria-label="ZeitZurück.at"><g transform="translate(65,53.786) scale(0.8643)"><path d="M6,4.5 C11,17 27,33 32,45.5" fill="none" stroke="#C9A054" stroke-width="1.5" stroke-linecap="butt" opacity="0.38"/><path d="M32.5,1.3 C28,12.3 10,30.3 5.5,41.3 L5.5,48.7 C10,37.7 28,19.7 32.5,8.7 Z" fill="#C9A054"/><rect x="1" y="0" width="36" height="6.8" rx="3.4" fill="#C9A054"/><rect x="1" y="43.2" width="36" height="6.8" rx="3.4" fill="#C9A054"/><path d="M11,9 H27 L19,17 Z" fill="#C9A054"/><path d="M16.5,40.5 H21.5 L19,37.5 Z" fill="#C9A054"/></g><path d="M127.59599999999999 84.04H103.94399999999999Q104.214 88.414 106.941 90.87100000000001Q109.66799999999999 93.328 113.556 93.328Q116.74199999999999 93.328 118.875 91.843Q121.008 90.358 121.87199999999999 87.874H127.16399999999999Q125.976 92.14 122.412 94.813Q118.848 97.486 113.556 97.486Q109.344 97.486 106.023 95.596Q102.702 93.706 100.812 90.223Q98.922 86.74 98.922 82.15Q98.922 77.56 100.758 74.104Q102.594 70.648 105.91499999999999 68.785Q109.23599999999999 66.922 113.556 66.922Q117.768 66.922 121.008 68.758Q124.24799999999999 70.594 126.00299999999999 73.80699999999999Q127.758 77.02 127.758 81.07Q127.758 82.474 127.59599999999999 84.04ZM113.33999999999999 71.08Q109.61399999999999 71.08 106.99499999999999 73.45599999999999Q104.37599999999999 75.832 103.99799999999999 80.044H122.68199999999999Q122.68199999999999 77.236 121.44 75.21100000000001Q120.198 73.186 118.065 72.13300000000001Q115.93199999999999 71.08 113.33999999999999 71.08Z M132.828 59.254Q132.828 57.85 133.8 56.878Q134.772 55.906 136.176 55.906Q137.52599999999998 55.906 138.471 56.878Q139.416 57.85 139.416 59.254Q139.416 60.658 138.471 61.63Q137.52599999999998 62.602000000000004 136.176 62.602000000000004Q134.772 62.602000000000004 133.8 61.63Q132.828 60.658 132.828 59.254ZM138.552 67.408V97.0H133.63799999999998V67.408Z M152.31599999999997 71.458V88.9Q152.31599999999997 91.06 153.23399999999998 91.951Q154.152 92.842 156.42 92.842H160.03799999999998V97.0H155.60999999999999Q151.506 97.0 149.454 95.11Q147.402 93.22 147.402 88.9V71.458H143.56799999999998V67.408H147.402V59.956H152.31599999999997V67.408H160.03799999999998V71.458Z M169.53599999999997 92.734H187.89599999999996V97.0H163.70399999999998V93.112L181.95599999999996 63.628H163.91999999999996V59.362H187.78799999999998V63.25Z M220.236 67.408V97.0H215.32199999999997V92.626Q213.91799999999998 94.894 211.40699999999998 96.16300000000001Q208.896 97.432 205.87199999999999 97.432Q202.41599999999997 97.432 199.66199999999998 96.001Q196.908 94.57 195.315 91.708Q193.72199999999998 88.846 193.72199999999998 84.742V67.408H198.58199999999997V84.094Q198.58199999999997 88.468 200.79599999999996 90.81700000000001Q203.00999999999996 93.166 206.84399999999997 93.166Q210.78599999999997 93.166 213.05399999999997 90.73599999999999Q215.32199999999997 88.306 215.32199999999997 83.662V67.408Z M242.42399999999998 66.868V71.944H241.128Q232.86599999999999 71.944 232.86599999999999 80.908V97.0H227.95199999999997V67.408H232.86599999999999V72.214Q234.16199999999998 69.676 236.565 68.27199999999999Q238.968 66.868 242.42399999999998 66.868Z M273.738 67.408V97.0H268.82399999999996V92.626Q267.41999999999996 94.894 264.909 96.16300000000001Q262.39799999999997 97.432 259.37399999999997 97.432Q255.91799999999998 97.432 253.164 96.001Q250.41 94.57 248.817 91.708Q247.224 88.846 247.224 84.742V67.408H252.08399999999997V84.094Q252.08399999999997 88.468 254.298 90.81700000000001Q256.512 93.166 260.346 93.166Q264.288 93.166 266.556 90.73599999999999Q268.82399999999996 88.306 268.82399999999996 83.662V67.408ZM253.43399999999997 60.604Q253.43399999999997 59.416000000000004 254.27099999999996 58.579Q255.10799999999998 57.742 256.296 57.742Q257.42999999999995 57.742 258.26699999999994 58.579Q259.104 59.416000000000004 259.104 60.604Q259.104 61.792 258.26699999999994 62.602000000000004Q257.42999999999995 63.412 256.296 63.412Q255.10799999999998 63.412 254.27099999999996 62.602000000000004Q253.43399999999997 61.792 253.43399999999997 60.604ZM262.236 60.604Q262.236 59.416000000000004 263.046 58.579Q263.856 57.742 265.044 57.742Q266.23199999999997 57.742 267.06899999999996 58.579Q267.906 59.416000000000004 267.906 60.604Q267.906 61.792 267.06899999999996 62.602000000000004Q266.23199999999997 63.412 265.044 63.412Q263.856 63.412 263.046 62.602000000000004Q262.236 61.792 262.236 60.604Z M294.036 66.922Q299.49 66.922 303.027 69.568Q306.56399999999996 72.214 307.698 76.912H302.406Q301.65 74.212 299.46299999999997 72.646Q297.276 71.08 294.036 71.08Q289.824 71.08 287.23199999999997 73.969Q284.64 76.858 284.64 82.15Q284.64 87.496 287.23199999999997 90.412Q289.824 93.328 294.036 93.328Q297.276 93.328 299.43600000000004 91.816Q301.596 90.304 302.406 87.496H307.698Q306.51 92.032 302.946 94.759Q299.382 97.486 294.036 97.486Q289.824 97.486 286.557 95.596Q283.28999999999996 93.706 281.45399999999995 90.25Q279.618 86.794 279.618 82.15Q279.618 77.56 281.45399999999995 74.131Q283.28999999999996 70.702 286.557 68.812Q289.824 66.922 294.036 66.922Z M330.156 97.0 318.546 83.932V97.0H313.632V57.04H318.546V80.53L329.94 67.408H336.798L322.866 82.15L336.852 97.0Z M339.05999999999995 93.976Q339.05999999999995 92.572 340.0319999999999 91.6Q341.00399999999996 90.628 342.40799999999996 90.628Q343.758 90.628 344.703 91.6Q345.64799999999997 92.572 345.64799999999997 93.976Q345.64799999999997 95.38 344.703 96.352Q343.758 97.324 342.40799999999996 97.324Q341.00399999999996 97.324 340.0319999999999 96.352Q339.05999999999995 95.38 339.05999999999995 93.976Z M363.786 66.922Q367.674 66.922 370.53599999999994 68.596Q373.39799999999997 70.27 374.80199999999996 72.80799999999999V67.408H379.77V97.0H374.80199999999996V91.492Q373.344 94.084 370.455 95.785Q367.566 97.486 363.73199999999997 97.486Q359.78999999999996 97.486 356.604 95.542Q353.418 93.598 351.582 90.088Q349.746 86.578 349.746 82.096Q349.746 77.56 351.582 74.131Q353.418 70.702 356.631 68.812Q359.844 66.922 363.786 66.922ZM364.758 71.188Q362.00399999999996 71.188 359.736 72.48400000000001Q357.46799999999996 73.78 356.11799999999994 76.26400000000001Q354.768 78.748 354.768 82.096Q354.768 85.498 356.11799999999994 88.009Q357.46799999999996 90.52 359.736 91.84299999999999Q362.00399999999996 93.166 364.758 93.166Q367.512 93.166 369.807 91.84299999999999Q372.102 90.52 373.452 88.009Q374.80199999999996 85.498 374.80199999999996 82.15Q374.80199999999996 78.80199999999999 373.452 76.318Q372.102 73.834 369.807 72.511Q367.512 71.188 364.758 71.188Z M393.47999999999996 71.458V88.9Q393.47999999999996 91.06 394.39799999999997 91.951Q395.316 92.842 397.58399999999995 92.842H401.202V97.0H396.774Q392.66999999999996 97.0 390.61799999999994 95.11Q388.566 93.22 388.566 88.9V71.458H384.73199999999997V67.408H388.566V59.956H393.47999999999996V67.408H401.202V71.458Z" fill="#1A3A2B"/></svg>